<svg id="Layer_1" height="512" viewBox="0 0 512 512" width="512" xmlns="http://www.w3.org/2000/svg" data-name="Layer 1"><path d="m474.643 130.019 3.773-3.772a33.482 33.482 0 0 0 0-47.347l-48.576-48.573a33.477 33.477 0 0 0 -47.344 0l-3.774 3.773-1.145-1.146a46 46 0 0 0 -65.054 0l-279.571 279.569a46.055 46.055 0 0 0 0 65.054l1.146 1.146-3.772 3.777a33.479 33.479 0 0 0 0 47.345l48.574 48.571a33.518 33.518 0 0 0 47.346 0l3.772-3.772 16.12 16.12a6 6 0 0 0 8.485 0l168.07-168.07 136.007-136.01 32.059-32.059a6 6 0 0 0 0-8.484zm-83.663-91.207a21.478 21.478 0 0 1 30.375 0l48.575 48.574a21.479 21.479 0 0 1 0 30.376l-3.772 3.772-78.95-78.95zm-349.542 282.197 279.57-279.571a34 34 0 0 1 48.083 0l30.778 30.777-327.655 327.654-30.776-30.777a34.037 34.037 0 0 1 0-48.083zm76.323 148.921a21.5 21.5 0 0 1 -30.374 0l-48.575-48.576a21.478 21.478 0 0 1 0-30.374l3.772-3.772 78.951 78.95zm297.839-257.114-30.822-30.822 30.375-30.375 30.822 30.822zm-39.307-22.337 30.823 30.821-30.375 30.375-30.822-30.822zm-38.86 38.86 30.822 30.822-30.375 30.375-30.822-30.822zm-38.86 38.86 30.827 30.822-15.188 15.187-15.191 15.192-30.821-30.826zm-38.86 38.86 30.822 30.822-30.375 30.375-30.822-30.821zm-38.86 38.86 30.822 30.822-30.375 30.375-30.822-30.822zm-38.86 38.86 30.823 30.821-30.375 30.375-30.822-30.822zm272.468-210.823-35.061-35.064a6 6 0 0 0 -8.485 0l-272.024 272.02a6 6 0 0 0 0 8.485l35.065 35.064-23.575 23.574-69.681-69.681 327.654-327.654 69.681 69.682z"/></svg>