<svg id="Layer_1" height="512" viewBox="0 0 512 512" width="512" xmlns="http://www.w3.org/2000/svg" data-name="Layer 1"><path d="m393.926 160.459h44.957v45.589h-44.957z" transform="matrix(.707 -.707 .707 .707 -7.617 348.117)"/><path d="m80.312 409.389 71.1 71.1 24.988-24.989-35.772-35.771a5 5 0 0 1 0-7.07l272.018-272.025a5 5 0 0 1 7.071 0l35.771 35.772 24.989-24.989-71.1-71.1z"/><path d="m355.066 199.319h44.957v45.589h-44.957z" transform="matrix(.707 -.707 .707 .707 -46.477 332.022)"/><path d="m160.766 393.619h44.957v45.588h-44.957z" transform="matrix(.707 -.707 .707 .707 -240.779 251.541)"/><path d="m39.131 391.309a22.479 22.479 0 0 0 0 31.789l48.575 48.575a22.5 22.5 0 0 0 31.788 0l4.48-4.479-80.363-80.364z"/><path d="m73.241 402.318 329.069-329.068-31.485-31.484a35 35 0 0 0 -49.5 0l-279.567 279.57a35.041 35.041 0 0 0 0 49.5z"/><path d="m199.626 354.759h44.956v45.588h-44.956z" transform="matrix(.707 -.707 .707 .707 -201.917 267.631)"/><path d="m471.664 119.5a22.479 22.479 0 0 0 0-31.79l-48.575-48.57a22.476 22.476 0 0 0 -31.788 0l-4.48 4.48 80.364 80.364z"/><path d="m267.812 299.61 32.236 32.236 15.895-15.895 15.894-15.894-32.235-32.236z"/><path d="m238.486 315.899h44.957v45.588h-44.957z" transform="matrix(.707 -.707 .707 .707 -163.058 283.732)"/><path d="m316.206 238.179h44.956v45.588h-44.956z" transform="matrix(.707 -.707 .707 .707 -85.338 315.92)"/></svg>