<?xml version="1.0" encoding="iso-8859-1"?>
<!-- Generator: Adobe Illustrator 18.0.0, SVG Export Plug-In . SVG Version: 6.00 Build 0)  -->
<!DOCTYPE svg PUBLIC "-//W3C//DTD SVG 1.1//EN" "http://www.w3.org/Graphics/SVG/1.1/DTD/svg11.dtd">
<svg version="1.1" id="Capa_1" xmlns="http://www.w3.org/2000/svg" xmlns:xlink="http://www.w3.org/1999/xlink" x="0px" y="0px"
	 viewBox="0 0 444.606 444.606" style="enable-background:new 0 0 444.606 444.606;" xml:space="preserve">
<path id="XMLID_1341_" d="M358.977,220.053c31.272-77.402-21.645-121.063-56.66-149.955c-8.112-6.692-25.178-19.149-41.199-52.987
	V10c0-5.523-4.477-10-10-10c-5.523,0-10,4.477-10,10c0,5.618,0,324.38,0,328.991c-19.171-16.86-46.678-24.384-72.5-24.384
	c-50.053,0-92.5,27.825-92.5,65c0,37.17,42.439,65,92.5,65c50.053,0,92.5-27.825,92.5-65V131.748
	c27.255,46.08,117.674,84.44,74.208,171.071c-2.477,4.936-0.483,10.946,4.454,13.422c4.933,2.476,10.945,0.485,13.422-4.454
	c16.222-32.332,18.079-62.31,5.656-91.495C358.894,220.21,358.943,220.137,358.977,220.053z M168.618,424.606
	c-39.299,0-72.5-20.607-72.5-45s33.201-45,72.5-45s72.5,20.607,72.5,45S207.917,424.606,168.618,424.606z M288.01,134.968
	c-26.448-29.946-26.89-76.215-26.891-76.679v-2.022c11.371,15.69,19.576,21.92,28.47,29.258
	c31.206,25.748,69.375,57.256,56.016,111.214C327.766,171.248,302.647,151.542,288.01,134.968z"/>
<g>
</g>
<g>
</g>
<g>
</g>
<g>
</g>
<g>
</g>
<g>
</g>
<g>
</g>
<g>
</g>
<g>
</g>
<g>
</g>
<g>
</g>
<g>
</g>
<g>
</g>
<g>
</g>
<g>
</g>
</svg>
