<svg id="Capa_1" enable-background="new 0 0 512 512" height="512" viewBox="0 0 512 512" width="512" xmlns="http://www.w3.org/2000/svg"><circle cx="354.5" cy="196" r="7.5"/><circle cx="384.5" cy="196" r="7.5"/><circle cx="414.5" cy="196" r="7.5"/><circle cx="444.5" cy="196" r="7.5"/><circle cx="474.5" cy="196" r="7.5"/><circle cx="354.5" cy="226" r="7.5"/><circle cx="384.5" cy="226" r="7.5"/><circle cx="414.5" cy="226" r="7.5"/><circle cx="444.5" cy="226" r="7.5"/><circle cx="474.5" cy="226" r="7.5"/><circle cx="354.5" cy="256" r="7.5"/><circle cx="384.5" cy="256" r="7.5"/><circle cx="414.5" cy="256" r="7.5"/><circle cx="444.5" cy="256" r="7.5"/><circle cx="474.5" cy="256" r="7.5"/><circle cx="354.5" cy="286" r="7.5"/><circle cx="384.5" cy="286" r="7.5"/><circle cx="414.5" cy="286" r="7.5"/><circle cx="444.5" cy="286" r="7.5"/><circle cx="474.5" cy="286" r="7.5"/><path d="m203.5 323.5h-45c-12.407 0-22.5 10.093-22.5 22.5s10.093 22.5 22.5 22.5h45c12.407 0 22.5-10.093 22.5-22.5s-10.093-22.5-22.5-22.5zm0 30h-45c-4.136 0-7.5-3.364-7.5-7.5s3.364-7.5 7.5-7.5h45c4.136 0 7.5 3.364 7.5 7.5s-3.364 7.5-7.5 7.5z"/><path d="m474.5 83.5h-437c-20.678 0-37.5 16.822-37.5 37.5v270c0 20.678 16.822 37.5 37.5 37.5h437c20.678 0 37.5-16.822 37.5-37.5v-270c0-20.678-16.822-37.5-37.5-37.5zm-437 15h437c12.407 0 22.5 10.093 22.5 22.5v262.5h-482v-262.5c0-12.407 10.093-22.5 22.5-22.5zm437 315h-437c-9.778 0-18.114-6.271-21.21-15h479.42c-3.096 8.729-11.432 15-21.21 15z"/><path d="m37.5 308.5h287c4.142 0 7.5-3.358 7.5-7.5v-120c0-4.142-3.358-7.5-7.5-7.5h-287c-4.142 0-7.5 3.358-7.5 7.5v45c0 4.142 3.358 7.5 7.5 7.5s7.5-3.358 7.5-7.5v-37.5h272v105h-128.5v-82.5c0-4.142-3.358-7.5-7.5-7.5s-7.5 3.358-7.5 7.5v82.5h-128.5v-37.5c0-4.142-3.358-7.5-7.5-7.5s-7.5 3.358-7.5 7.5v45c0 4.142 3.358 7.5 7.5 7.5z"/><path d="m181 158.5c12.407 0 22.5-10.093 22.5-22.5s-10.093-22.5-22.5-22.5-22.5 10.093-22.5 22.5 10.093 22.5 22.5 22.5zm0-30c4.136 0 7.5 3.364 7.5 7.5s-3.364 7.5-7.5 7.5-7.5-3.364-7.5-7.5 3.364-7.5 7.5-7.5z"/><path d="m97.5 158.5c12.407 0 22.5-10.093 22.5-22.5s-10.093-22.5-22.5-22.5-22.5 10.093-22.5 22.5 10.093 22.5 22.5 22.5zm0-30c4.136 0 7.5 3.364 7.5 7.5s-3.364 7.5-7.5 7.5-7.5-3.364-7.5-7.5 3.364-7.5 7.5-7.5z"/><path d="m264.5 158.5c12.407 0 22.5-10.093 22.5-22.5s-10.093-22.5-22.5-22.5-22.5 10.093-22.5 22.5 10.093 22.5 22.5 22.5zm0-30c4.136 0 7.5 3.364 7.5 7.5s-3.364 7.5-7.5 7.5-7.5-3.364-7.5-7.5 3.364-7.5 7.5-7.5z"/><path d="m309.5 323.5h-45c-12.407 0-22.5 10.093-22.5 22.5s10.093 22.5 22.5 22.5h45c12.407 0 22.5-10.093 22.5-22.5s-10.093-22.5-22.5-22.5zm0 30h-45c-4.136 0-7.5-3.364-7.5-7.5s3.364-7.5 7.5-7.5h45c4.136 0 7.5 3.364 7.5 7.5s-3.364 7.5-7.5 7.5z"/><path d="m52.5 368.5h45c12.407 0 22.5-10.093 22.5-22.5s-10.093-22.5-22.5-22.5h-45c-12.407 0-22.5 10.093-22.5 22.5s10.093 22.5 22.5 22.5zm0-30h45c4.136 0 7.5 3.364 7.5 7.5s-3.364 7.5-7.5 7.5h-45c-4.136 0-7.5-3.364-7.5-7.5s3.364-7.5 7.5-7.5z"/></svg>