<svg id="Capa_1" enable-background="new 0 0 512 512" height="512" viewBox="0 0 512 512" width="512" xmlns="http://www.w3.org/2000/svg"><path d="m444.5 331 60 60c0 16.57-13.43 30-30 30h-30z" fill="#a1758f"/><path d="m7.5 391 248.5-150 218.5 150c0 16.57-13.43 30-30 30h-407c-16.57 0-30-13.43-30-30z" fill="#c199aa"/><path d="m474.5 91h-30v270l30 30h30v-270c0-16.57-13.43-30-30-30z" fill="#46203b"/><path d="m474.5 121v270h-467v-270c0-16.57 13.43-30 30-30h407c16.57 0 30 13.43 30 30z" fill="#643858"/><path d="m294.5 301-60-60 60-60h30v120z" fill="#a3ba3c"/><path d="m37.5 181h257v120h-257z" fill="#b9d14f"/><path d="m97.5 331h-30v30h30c8.25 0 15-6.75 15-15s-6.75-15-15-15z" fill="#825074"/><path d="m82.5 346c0-8.25-6.75-15-15-15h-15c-8.25 0-15 6.75-15 15s6.75 15 15 15h15c8.25 0 15-6.75 15-15z" fill="#a1758f"/><path d="m203.5 331h-30v30h30c8.25 0 15-6.75 15-15s-6.75-15-15-15z" fill="#825074"/><path d="m188.5 346c0-8.25-6.75-15-15-15h-15c-8.25 0-15 6.75-15 15s6.75 15 15 15h15c8.25 0 15-6.75 15-15z" fill="#a1758f"/><circle cx="181" cy="136" fill="#e5ff76" r="15"/><circle cx="97.5" cy="136" fill="#ff6f61" r="15"/><circle cx="264.5" cy="136" fill="#ff6f61" r="15"/><path d="m309.5 331h-30v30h30c8.25 0 15-6.75 15-15s-6.75-15-15-15z" fill="#fa4635"/><path d="m294.5 346c0-8.25-6.75-15-15-15h-15c-8.25 0-15 6.75-15 15s6.75 15 15 15h15c8.25 0 15-6.75 15-15z" fill="#ff6f61"/><circle cx="354.5" cy="196" r="7.5"/><circle cx="384.5" cy="196" r="7.5"/><circle cx="414.5" cy="196" r="7.5"/><circle cx="444.5" cy="196" r="7.5"/><circle cx="474.5" cy="196" r="7.5"/><circle cx="354.5" cy="226" r="7.5"/><circle cx="384.5" cy="226" r="7.5"/><circle cx="414.5" cy="226" r="7.5"/><circle cx="444.5" cy="226" r="7.5"/><circle cx="474.5" cy="226" r="7.5"/><circle cx="354.5" cy="256" r="7.5"/><circle cx="384.5" cy="256" r="7.5"/><circle cx="414.5" cy="256" r="7.5"/><circle cx="444.5" cy="256" r="7.5"/><circle cx="474.5" cy="256" r="7.5"/><circle cx="354.5" cy="286" r="7.5"/><circle cx="384.5" cy="286" r="7.5"/><circle cx="414.5" cy="286" r="7.5"/><circle cx="444.5" cy="286" r="7.5"/><circle cx="474.5" cy="286" r="7.5"/><path d="m203.5 323.5h-45c-12.407 0-22.5 10.093-22.5 22.5s10.093 22.5 22.5 22.5h45c12.407 0 22.5-10.093 22.5-22.5s-10.093-22.5-22.5-22.5zm0 30h-45c-4.136 0-7.5-3.364-7.5-7.5s3.364-7.5 7.5-7.5h45c4.136 0 7.5 3.364 7.5 7.5s-3.364 7.5-7.5 7.5z"/><path d="m474.5 83.5h-437c-20.678 0-37.5 16.822-37.5 37.5v270c0 20.678 16.822 37.5 37.5 37.5h437c20.678 0 37.5-16.822 37.5-37.5v-270c0-20.678-16.822-37.5-37.5-37.5zm-437 15h437c12.407 0 22.5 10.093 22.5 22.5v262.5h-482v-262.5c0-12.407 10.093-22.5 22.5-22.5zm437 315h-437c-9.778 0-18.114-6.271-21.21-15h479.42c-3.096 8.729-11.432 15-21.21 15z"/><path d="m37.5 308.5h287c4.142 0 7.5-3.358 7.5-7.5v-120c0-4.142-3.358-7.5-7.5-7.5h-287c-4.142 0-7.5 3.358-7.5 7.5v45c0 4.142 3.358 7.5 7.5 7.5s7.5-3.358 7.5-7.5v-37.5h272v105h-128.5v-82.5c0-4.142-3.358-7.5-7.5-7.5s-7.5 3.358-7.5 7.5v82.5h-128.5v-37.5c0-4.142-3.358-7.5-7.5-7.5s-7.5 3.358-7.5 7.5v45c0 4.142 3.358 7.5 7.5 7.5z"/><path d="m181 158.5c12.407 0 22.5-10.093 22.5-22.5s-10.093-22.5-22.5-22.5-22.5 10.093-22.5 22.5 10.093 22.5 22.5 22.5zm0-30c4.136 0 7.5 3.364 7.5 7.5s-3.364 7.5-7.5 7.5-7.5-3.364-7.5-7.5 3.364-7.5 7.5-7.5z"/><path d="m97.5 158.5c12.407 0 22.5-10.093 22.5-22.5s-10.093-22.5-22.5-22.5-22.5 10.093-22.5 22.5 10.093 22.5 22.5 22.5zm0-30c4.136 0 7.5 3.364 7.5 7.5s-3.364 7.5-7.5 7.5-7.5-3.364-7.5-7.5 3.364-7.5 7.5-7.5z"/><path d="m264.5 158.5c12.407 0 22.5-10.093 22.5-22.5s-10.093-22.5-22.5-22.5-22.5 10.093-22.5 22.5 10.093 22.5 22.5 22.5zm0-30c4.136 0 7.5 3.364 7.5 7.5s-3.364 7.5-7.5 7.5-7.5-3.364-7.5-7.5 3.364-7.5 7.5-7.5z"/><path d="m309.5 323.5h-45c-12.407 0-22.5 10.093-22.5 22.5s10.093 22.5 22.5 22.5h45c12.407 0 22.5-10.093 22.5-22.5s-10.093-22.5-22.5-22.5zm0 30h-45c-4.136 0-7.5-3.364-7.5-7.5s3.364-7.5 7.5-7.5h45c4.136 0 7.5 3.364 7.5 7.5s-3.364 7.5-7.5 7.5z"/><path d="m52.5 368.5h45c12.407 0 22.5-10.093 22.5-22.5s-10.093-22.5-22.5-22.5h-45c-12.407 0-22.5 10.093-22.5 22.5s10.093 22.5 22.5 22.5zm0-30h45c4.136 0 7.5 3.364 7.5 7.5s-3.364 7.5-7.5 7.5h-45c-4.136 0-7.5-3.364-7.5-7.5s3.364-7.5 7.5-7.5z"/></svg>