<?xml version="1.0" encoding="iso-8859-1"?>
<!-- Generator: Adobe Illustrator 19.0.0, SVG Export Plug-In . SVG Version: 6.00 Build 0)  -->
<svg version="1.1" id="Capa_1" xmlns="http://www.w3.org/2000/svg" xmlns:xlink="http://www.w3.org/1999/xlink" x="0px" y="0px"
	 viewBox="0 0 511.999 511.999" style="enable-background:new 0 0 511.999 511.999;" xml:space="preserve">
<path style="fill:#A1A1A1;" d="M121.861,446.101l-46.723,46.723c-6.457,6.457-16.926,6.457-23.382,0l-21.768-21.768l36.796-36.796
	L121.861,446.101z"/>
<path style="fill:#D2D2D2;" d="M13.438,431.125c-6.457,6.457-6.457,16.926,0,23.382l16.55,16.55c6.457,6.457,16.926,6.457,23.382,0
	l46.723-46.723l-39.932-39.932L13.438,431.125z"/>
<path style="fill:#A1A1A1;" d="M446.101,121.86l46.723-46.723c6.457-6.457,6.457-16.926,0-23.382l-21.768-21.768L434.26,66.783
	L446.101,121.86z"/>
<g>
	<path style="fill:#D2D2D2;" d="M431.125,13.437c6.457-6.457,16.926-6.457,23.382,0l16.55,16.55c6.457,6.457,6.457,16.926,0,23.382
		l-46.723,46.723l-39.932-39.932L431.125,13.437z"/>
	<path style="fill:#D2D2D2;" d="M491.466,123.989c17.394,17.394,17.394,45.595,0,62.989L186.978,491.466
		c-17.394,17.394-45.595,17.394-62.989,0l-45.514-45.514L445.952,78.474L491.466,123.989z"/>
</g>
<path style="fill:#FD6F71;" d="M325.022,20.534L20.534,325.022c-17.394,17.394-17.394,45.595,0,62.989l57.942,57.942
	c17.394,17.394,45.595,17.394,62.989,0l304.488-304.488c17.394-17.394,17.394-45.595,0-62.989l-57.942-57.942
	C370.616,3.14,342.416,3.14,325.022,20.534z"/>
<path style="fill:#F74F50;" d="M178.516,371.037l192.521-192.521c25.17-25.17,25.17-66.125,0-91.295l-56.352-56.352L30.869,314.685
	l56.352,56.352C112.391,396.207,153.346,396.207,178.516,371.037z"/>
<path style="fill:#FD6F71;" d="M244.604,52.083L52.083,244.604c-13.495,13.495-13.495,35.373,0,48.867l56.352,56.352
	c13.495,13.495,35.373,13.495,48.867,0l192.521-192.521c13.495-13.495,13.495-35.373,0-48.867l-56.352-56.352
	C279.977,38.59,258.099,38.59,244.604,52.083z"/>
<path d="M144.787,234.124c-2.929,2.929-2.929,7.678,0,10.607c0,0,8.08,8.08,8.085,8.085c2.898,2.898,7.71,2.896,10.607,0
	c2.929-2.929,2.929-7.678,0-10.607l-8.085-8.085C152.465,231.195,147.716,231.195,144.787,234.124z"/>
<path d="M247.525,165.638c1.929,0,3.857-0.724,5.303-2.17c2.929-2.929,2.929-7.678,0-10.606l-8.085-8.085
	c-2.929-2.929-7.678-2.929-10.606,0c-2.929,2.929-2.929,7.678,0,10.606c0,0,8.08,8.08,8.085,8.085
	C243.668,164.914,245.597,165.638,247.525,165.638z"/>
<path d="M191.764,205.818c-4.14-0.277-7.708,2.848-7.986,6.98c-0.35,5.2,4.124,8.047,8.786,8.047c7.348,0,14.519-3.001,19.905-8.388
	c5.828-5.828,8.863-13.742,8.327-21.711c-0.277-4.133-3.86-7.258-7.986-6.98c-4.133,0.278-7.258,3.854-6.98,7.986
	c0.245,3.65-1.201,7.331-3.968,10.098C199.095,204.617,195.413,206.063,191.764,205.818z"/>
<path d="M184.866,435.71c-2.541-2.541-6.661-2.541-9.202,0l-12.367,12.367c-2.541,2.541-2.541,6.661,0,9.202l12.367,12.367
	c2.541,2.541,6.661,2.541,9.202,0l12.367-12.367c2.541-2.541,2.541-6.661,0-9.202L184.866,435.71z"/>
<path d="M223.783,396.792c-2.541-2.541-6.661-2.541-9.202,0l-12.367,12.367c-2.541,2.541-2.541,6.661,0,9.202l12.367,12.367
	c2.541,2.541,6.661,2.541,9.202,0l12.367-12.367c2.541-2.541,2.541-6.661,0-9.202L223.783,396.792z"/>
<path d="M262.701,357.875c-2.541-2.541-6.661-2.541-9.202,0l-12.367,12.367c-2.541,2.541-2.541,6.661,0,9.202l12.367,12.367
	c2.541,2.541,6.661,2.541,9.202,0l12.367-12.367c2.541-2.541,2.541-6.661,0-9.202L262.701,357.875z"/>
<path d="M301.619,318.957c-2.541-2.541-6.661-2.541-9.202,0l-12.367,12.367c-2.541,2.541-2.541,6.661,0,9.202l12.367,12.367
	c2.541,2.541,6.661,2.541,9.202,0l12.367-12.367c2.541-2.541,2.541-6.661,0-9.202L301.619,318.957z"/>
<path d="M340.537,280.039c-2.541-2.541-6.661-2.541-9.202,0l-12.367,12.367c-2.541,2.541-2.541,6.661,0,9.202l12.367,12.367
	c2.541,2.541,6.661,2.541,9.202,0l12.367-12.367c2.541-2.541,2.541-6.661,0-9.202L340.537,280.039z"/>
<path d="M379.455,241.12c-2.541-2.541-6.661-2.541-9.202,0l-12.367,12.367c-2.541,2.541-2.541,6.661,0,9.202l12.367,12.367
	c2.541,2.541,6.661,2.541,9.202,0l12.367-12.367c2.541-2.541,2.541-6.661,0-9.202L379.455,241.12z"/>
<path d="M418.373,202.202c-2.541-2.541-6.661-2.541-9.202,0l-12.367,12.367c-2.541,2.541-2.541,6.661,0,9.202l12.367,12.367
	c2.541,2.541,6.661,2.541,9.202,0l12.367-12.367c2.541-2.541,2.541-6.661,0-9.202L418.373,202.202z"/>
<path d="M448.088,163.284l-12.367,12.367c-2.541,2.541-2.541,6.661,0,9.202l12.367,12.367c2.541,2.541,6.661,2.541,9.202,0
	l12.367-12.367c2.541-2.541,2.541-6.661,0-9.202l-12.367-12.367C454.749,160.743,450.629,160.743,448.088,163.284z"/>
<path d="M459.823,8.134c-9.266-9.266-24.729-9.259-33.989,0l-19.802,19.802c0,0-12.703-12.702-12.706-12.706
	c-20.06-20.059-53.552-20.044-73.595,0l-26.73,26.73c-16.384-11.365-39.101-9.765-53.688,4.82l-12.471,12.471
	c-2.929,2.929-2.929,7.678,0,10.607c2.929,2.929,7.678,2.929,10.607,0l12.471-12.471c10.548-10.547,27.711-10.547,38.261,0
	l56.352,56.352c10.547,10.548,10.547,27.711,0,38.26c0,0-151.944,151.943-151.981,151.98c-2.843,2.844-2.889,7.718,0,10.606
	c2.891,2.891,7.715,2.891,10.607,0l151.981-151.98c16.397-16.397,16.397-43.077,0-59.474l-51.047-51.047
	c0,0,26.236-26.236,26.247-26.247c14.283-14.283,38.113-14.269,52.381,0c0,0,57.935,57.935,57.941,57.941
	c6.883,6.883,10.85,16.457,10.85,26.191c0,9.893-3.853,19.195-10.85,26.19L136.172,440.648c-14.096,14.096-38.256,14.126-52.382,0
	l-57.941-57.941c-14.442-14.442-14.442-37.94,0-52.381l26.247-26.246c0,0,50.99,50.99,51.047,51.047
	c16.078,16.078,43.413,16.061,59.474,0l19.326-19.326c2.877-2.877,2.872-7.735,0-10.607c-2.929-2.929-7.678-2.929-10.607,0
	l-19.326,19.326c-10.549,10.547-27.712,10.548-38.261,0L57.4,288.17c-10.548-10.549-10.548-27.712,0-38.261L216.236,91.072
	c2.929-2.929,2.929-7.678,0-10.606c-2.929-2.929-7.678-2.929-10.607,0L46.792,239.301c-14.587,14.586-16.185,37.304-4.82,53.688
	l-26.73,26.73C5.413,329.547,0,342.616,0,356.516c0,13.901,5.413,26.969,15.242,36.798l12.706,12.706
	c0,0-19.794,19.794-19.802,19.802c-9.263,9.264-9.256,24.733,0,33.989c0,0,38.31,38.31,38.318,38.318
	c9.262,9.262,24.736,9.252,33.989,0l19.802-19.802c0,0,18.437,18.437,18.443,18.443c20.06,20.06,53.556,20.041,73.595,0
	l304.489-304.488c20.29-20.291,20.29-53.306,0-73.595l-18.443-18.443l19.802-19.801c9.37-9.371,9.37-24.618,0-33.99
	C498.14,46.452,459.838,8.149,459.823,8.134z M436.44,18.741c3.486-3.486,9.291-3.483,12.775,0c0,0,16.54,16.54,16.55,16.55
	c3.435,3.435,3.424,9.349,0,12.776l-19.802,19.801L416.64,38.543C416.64,38.543,436.425,18.757,436.44,18.741z M16.108,442.816
	c0-2.413,0.939-4.681,2.646-6.387l19.802-19.802l29.324,29.325c0,0-19.801,19.801-19.802,19.802c-3.434,3.434-9.309,3.466-12.775,0
	l-16.55-16.55C17.047,447.498,16.108,445.229,16.108,442.816z M89.647,467.72c0,0-19.791,19.791-19.802,19.802
	c-3.482,3.482-9.296,3.478-12.775,0l-6.009-6.009c0.037-0.016,0.072-0.037,0.109-0.053c2.796-1.214,5.358-2.942,7.514-5.098
	l19.803-19.801L89.3,467.373L89.647,467.72z M486.175,181.674c0,0-304.382,304.381-304.489,304.488
	c-14.281,14.281-38.115,14.267-52.381,0l-19.666-19.666c13.001,0.083,25.32-4.587,34.948-13.181
	c0.749-0.669,1.483-1.351,2.193-2.061l304.488-304.488c9.829-9.829,15.243-22.897,15.243-36.798c0-0.115,0-0.229-0.001-0.343
	l19.667,19.666C500.616,143.734,500.616,167.233,486.175,181.674z M487.534,69.834l-19.802,19.801l-11.161-11.161l19.802-19.801
	c2.16-2.16,3.954-4.817,5.141-7.633l6.018,6.019C491.055,60.581,491.055,66.312,487.534,69.834z"/>
<g>
</g>
<g>
</g>
<g>
</g>
<g>
</g>
<g>
</g>
<g>
</g>
<g>
</g>
<g>
</g>
<g>
</g>
<g>
</g>
<g>
</g>
<g>
</g>
<g>
</g>
<g>
</g>
<g>
</g>
</svg>
