<?xml version="1.0" encoding="iso-8859-1"?>
<!-- Generator: Adobe Illustrator 17.1.0, SVG Export Plug-In . SVG Version: 6.00 Build 0)  -->
<!DOCTYPE svg PUBLIC "-//W3C//DTD SVG 1.1//EN" "http://www.w3.org/Graphics/SVG/1.1/DTD/svg11.dtd">
<svg version="1.1" id="Capa_1" xmlns="http://www.w3.org/2000/svg" xmlns:xlink="http://www.w3.org/1999/xlink" x="0px" y="0px"
	 viewBox="0 0 351 351" style="enable-background:new 0 0 351 351;" xml:space="preserve">
<path d="M343.5,131.757c4.143,0,7.5-3.358,7.5-7.5s-3.357-7.5-7.5-7.5H118.155c8.812-9.45,16.858-19.092,22.591-29H343.5
	c4.143,0,7.5-3.358,7.5-7.5s-3.357-7.5-7.5-7.5H147.387c0.034-0.115,0.074-0.229,0.107-0.345c7.61-26.162,1.592-38.98-4.798-45.127
	c-5.732-5.515-13.814-7.434-21.092-5.01C99.694,29.579,99.4,66.232,99.438,70.387v2.37H7.5c-4.143,0-7.5,3.358-7.5,7.5
	s3.357,7.5,7.5,7.5h91.938v26.862c-0.696,0.713-1.396,1.426-2.096,2.138H7.5c-4.143,0-7.5,3.358-7.5,7.5s3.357,7.5,7.5,7.5h75.049
	c-9.199,9.46-18.017,19.097-24.877,29H7.5c-4.143,0-7.5,3.358-7.5,7.5c0,4.142,3.357,7.5,7.5,7.5h41.588
	c-1.631,3.685-2.908,7.41-3.741,11.181c-1.372,6.207-2.054,12.157-2.099,17.819H7.5c-4.143,0-7.5,3.358-7.5,7.5
	c0,4.142,3.357,7.5,7.5,7.5h37.314c1.792,7.725,5.094,14.658,9.884,20.623c2.514,3.13,5.419,5.918,8.647,8.377H7.5
	c-4.143,0-7.5,3.358-7.5,7.5c0,4.142,3.357,7.5,7.5,7.5h91.938v6.688c0,44.313-10.641,44.313-20.028,44.313
	c-9.423,0-10.83-15.393-10.855-15.701c-0.316-4.118-3.897-7.208-8.026-6.906c-4.131,0.303-7.234,3.897-6.932,8.028
	c0.749,10.231,7.108,29.579,25.814,29.579c24.187,0,34.201-15.326,34.974-54.271c0.033-0.287,0.055-0.577,0.055-0.872v-10.857H343.5
	c4.143,0,7.5-3.358,7.5-7.5c0-4.142-3.357-7.5-7.5-7.5H143.863c7.351-6.864,11.894-16.538,13.588-29H343.5
	c4.143,0,7.5-3.358,7.5-7.5c0-4.142-3.357-7.5-7.5-7.5H158.104c-0.783-12.043-6.064-22.039-14.715-29H343.5
	c4.143,0,7.5-3.358,7.5-7.5c0-4.142-3.357-7.5-7.5-7.5H114.438v-29H343.5z M116.322,53.403c1.223-5.47,4.151-14.939,10.026-16.897
	c1.469-0.493,3.912-0.37,5.948,1.589c4.677,4.498,4.974,15.761,0.795,30.127c-0.438,1.504-0.979,3.017-1.602,4.534h-17.052v-2.439
	c0-0.009-0.001-0.019-0.001-0.028c0-0.011,0.001-0.022,0.001-0.033C114.438,70.174,114.403,61.988,116.322,53.403z M114.438,87.757
	h8.458c-2.539,3.553-5.391,7.121-8.458,10.692V87.757z M59.993,190.176c1.05-4.749,3.106-9.564,5.894-14.419h19.898
	c-6.866,7.587-10.854,18.162-10.854,28.354c0,0.219,0.02,0.429,0.023,0.646H58.243C58.283,200.177,58.859,195.305,59.993,190.176z
	 M89.952,204.757c-0.007-0.216-0.021-0.426-0.021-0.646c0-9.645,4.346-16.612,9.507-20.514v21.16H89.952z M78.879,219.757
	c0.661,1.126,1.382,2.206,2.202,3.203c3.115,3.783,8.793,8.246,18.357,8.705v14.397c-14.385-1.047-25.997-6.299-33.045-15.074
	c-2.638-3.285-4.628-7.054-5.989-11.23H78.879z M114.438,245.69v-25.933h27.855C139.584,235.38,130.77,243.555,114.438,245.69z
	 M114.438,204.757v-24.537c16.669,1.583,27.256,10.612,28.626,24.537H114.438z M76.47,160.757
	c6.771-8.279,14.853-16.586,22.969-24.789v24.789H76.47z"/>
<g>
</g>
<g>
</g>
<g>
</g>
<g>
</g>
<g>
</g>
<g>
</g>
<g>
</g>
<g>
</g>
<g>
</g>
<g>
</g>
<g>
</g>
<g>
</g>
<g>
</g>
<g>
</g>
<g>
</g>
</svg>
